<svg width="15" height="15" viewBox="0 0 15 15" fill="none" xmlns="http://www.w3.org/2000/svg">
<path d="M3.95336 7.989H5.5976V14.7581C5.5976 14.8917 5.70589 15 5.83954 15H8.62741C8.76105 15 8.86935 14.8917 8.86935 14.7581V8.02089H10.7595C10.8824 8.02089 10.9858 7.92866 10.9999 7.80658L11.287 5.31455C11.2948 5.24598 11.2731 5.17732 11.2272 5.12589C11.1813 5.0744 11.1156 5.04494 11.0467 5.04494H8.86944V3.48281C8.86944 3.0119 9.12299 2.77311 9.62312 2.77311C9.69439 2.77311 11.0467 2.77311 11.0467 2.77311C11.1803 2.77311 11.2886 2.66477 11.2886 2.53118V0.243726C11.2886 0.110081 11.1803 0.00179032 11.0467 0.00179032H9.08481C9.07097 0.0011129 9.04025 0 8.99496 0C8.65455 0 7.47134 0.0668225 6.5367 0.926661C5.50112 1.8795 5.64507 3.02037 5.67947 3.21818V5.04489H3.95336C3.81972 5.04489 3.71143 5.15318 3.71143 5.28682V7.74702C3.71143 7.88066 3.81972 7.989 3.95336 7.989Z" fill="#4B4B4B"/>
</svg>
