<svg width="15" height="15" viewBox="0 0 15 15" fill="none" xmlns="http://www.w3.org/2000/svg">
<g clip-path="url(#clip0_413_9)">
<path d="M10.947 0H4.05296C1.81816 0 0 1.81816 0 4.05296V10.947C0 13.1818 1.81816 15 4.05296 15H10.947C13.1818 15 15 13.1818 15 10.947V4.05296C15 1.81816 13.1818 0 10.947 0ZM13.7882 10.947C13.7882 12.5136 12.5137 13.7882 10.947 13.7882H4.05296C2.48637 13.7882 1.21184 12.5137 1.21184 10.947V4.05296C1.21184 2.48637 2.48634 1.21184 4.05296 1.21184H10.947C12.5136 1.21184 13.7882 2.48634 13.7882 4.05296V10.947Z" fill="#323232"/>
<path d="M10.857 6.97678C10.7504 6.25763 10.4223 5.60583 9.9082 5.09176C9.39413 4.57771 8.74233 4.24959 8.02321 4.14298C7.69579 4.09443 7.36382 4.09443 7.03643 4.14298C6.14768 4.27478 5.36349 4.74476 4.82827 5.46637C4.29304 6.18799 4.07082 7.07486 4.20263 7.96355C4.33444 8.85227 4.80442 9.63646 5.52603 10.1717C6.11185 10.6062 6.80648 10.8344 7.5227 10.8344C7.68873 10.8344 7.85595 10.8221 8.02318 10.7973C8.91193 10.6655 9.69612 10.1955 10.2313 9.47393C10.7666 8.75234 10.9888 7.8655 10.857 6.97678ZM7.84543 9.59858C7.27693 9.68302 6.70959 9.54078 6.24796 9.19839C5.78633 8.85599 5.48569 8.35432 5.4014 7.78581C5.31708 7.2173 5.4592 6.64997 5.8016 6.18834C6.14402 5.72671 6.64567 5.42606 7.2142 5.34175C7.31891 5.32622 7.42435 5.31845 7.52979 5.31845C7.63523 5.31845 7.7407 5.32622 7.84541 5.34177C8.78967 5.48178 9.5182 6.21028 9.65824 7.15458C9.83226 8.32815 9.01907 9.42456 7.84543 9.59858Z" fill="#323232"/>
<path d="M11.7202 3.27978C11.6074 3.16695 11.4512 3.10229 11.2917 3.10229C11.1323 3.10229 10.9761 3.16692 10.8633 3.27978C10.7504 3.39263 10.6858 3.54855 10.6858 3.70824C10.6858 3.86794 10.7504 4.02386 10.8633 4.13671C10.9761 4.24953 11.1323 4.31419 11.2917 4.31419C11.4512 4.31419 11.6074 4.24956 11.7202 4.13671C11.833 4.02386 11.8977 3.86768 11.8977 3.70824C11.8977 3.54878 11.833 3.3926 11.7202 3.27978Z" fill="#323232"/>
</g>
<defs>
<clipPath id="clip0_413_9">
<rect width="15" height="15" fill="white"/>
</clipPath>
</defs>
</svg>
