<svg width="18" height="18" viewBox="0 0 18 18" fill="none" xmlns="http://www.w3.org/2000/svg">
<path d="M17.2984 14.2464C16.6487 15.0188 15.4491 15.3339 13.1581 15.3339H4.84177C2.49834 15.3339 1.27841 14.9985 0.631103 14.1762C0 13.3744 0 12.1931 0 10.5581V7.44185C0 4.27437 0.7488 2.66616 4.84177 2.66616H13.1581C15.1449 2.66616 16.2458 2.94417 16.958 3.62579C17.6884 4.32477 18 5.46603 18 7.44185V10.5581C18 12.2823 17.9512 13.4706 17.2984 14.2464ZM11.5561 8.56975L7.77966 6.59608C7.69523 6.55195 7.60291 6.53006 7.5107 6.53006C7.4063 6.53006 7.30214 6.55817 7.20987 6.61403C7.03614 6.7193 6.93006 6.9076 6.93006 7.11071V11.0454C6.93006 11.2482 7.03585 11.4363 7.20923 11.5416C7.38267 11.6469 7.59838 11.6541 7.77832 11.5607L11.5547 9.5997C11.7469 9.49995 11.8675 9.3016 11.8678 9.08519C11.868 8.86861 11.7479 8.66997 11.5561 8.56975Z" fill="#323232"/>
</svg>
